<svg xmlns="http://www.w3.org/2000/svg" version="1.1" xmlns:xlink="http://www.w3.org/1999/xlink" xmlns:svgjs="http://svgjs.dev/svgjs" width="2000" height="1500" viewBox="0 0 2000 1500"><rect width="2000" height="1500" fill="#000000"></rect><g transform="matrix(0.75,0,0,0.75,249.09154779283585,526.0215690006124)"><svg viewBox="0 0 396 118" data-background-color="#282634" preserveAspectRatio="xMidYMid meet" height="595" width="2000" xmlns="http://www.w3.org/2000/svg" xmlns:xlink="http://www.w3.org/1999/xlink"><g id="tight-bounds" transform="matrix(1,0,0,1,0.24008861730862918,0.2258874895585734)"><svg viewBox="0 0 395.52 117.54844336102356" height="117.54844336102356" width="395.52"><g><svg viewBox="0 0 395.52 117.54844336102356" height="117.54844336102356" width="395.52"><g><svg viewBox="0 0 395.52 117.54844336102356" height="117.54844336102356" width="395.52"><g id="textblocktransform"><svg viewBox="0 0 395.52 117.54844336102356" height="117.54844336102356" width="395.52" id="textblock"><g><svg viewBox="0 0 395.52 98.04369696382042" height="98.04369696382042" width="395.52"><path d="M394.594 21.028C392.735 10.852 387.435 8.022 387.435 8.022 371.165-2.46 350.86-0.201 332.619 1.306 300.414 1.367 268.339 3.606 236.208 4.807 168.767 4.99 100.749 1.977 33.643 9.406 27.339 11.686-6.54 9.854 1.121 22.331 3.129 27.521 10.456 33.281 10.232 38.044 11.236 38.879 12.631 36.966 13.226 38.166 15.309 41.403 18.711 39.876 21.501 41.789 17.614 46.898 20.403 51.152 23.062 55.61 18.377 56.77 12.371 56.22 9.675 60.067 9.396 62.856 7.89 62.326 6.235 62.204 5.026 62.123 2.59 62.428 2.999 63.303 4.394 66.295-1.594 68.025 2.162 70.956-0.422 74.132 3.948 76.879 3.353 80.319 3.278 81.011 3.687 81.601 4.338 81.764 7.22 82.639 3.018 84.349 3.464 86.201 33.029 98.861 65.104 90.109 95.394 95.93 103.259 91.86 97.346 97.376 100.489 96.521 102.943 95.523 104.728 99.655 107.499 97.315 107.927 96.643 107.276 95.055 108.8 95.361 109.6 95.523 110.307 95.483 110.418 94.546 110.586 93.142 109.117 94.017 108.726 93.284 112.947 89.58 111.906 98.393 115.866 98.027 115.68 96.948 114.528 95.401 116.889 95.605 119.232 94.058 119.306 92.776 121.389 96.256 121.463 97.009 121.835 97.538 122.43 97.905 128.938 94.119 135.409 99.248 142.233 97.538 146.417 95.666 150.433 98.556 154.672 97.844 156.16 97.274 157.666 96.256 159.098 97.966 176.632 98.332 195.319 96.806 211.943 98.027 256.364 95.747 303.836 98.963 350.674 95.951 361.719 94.791 373.192 93.142 383.958 91.819 383.958 91.819 392.679 88.196 392.679 71.913S394.538 57.665 394.817 44.7C395.096 31.735 396.398 31.205 394.538 21.028Z" opacity="1" fill="#ffffff" data-fill-palette-color="tertiary"></path><g transform="matrix(1,0,0,1,55.76832,26.068561146666667)"><svg width="283.98335999999995" viewBox="2 -32.45 209.38 33.85" height="45.906574670487096" data-palette-color="#282634"><path d="M16.95 0.6Q12.45 0.6 9.05-1.3 5.65-3.2 3.83-6.68 2-10.15 2-14.85L2-14.85Q2-19.85 4.25-23.88 6.5-27.9 10.48-30.18 14.45-32.45 19.45-32.45L19.45-32.45Q21.3-32.45 23.23-32.18 25.15-31.9 26.48-31.63 27.8-31.35 28.15-31.25L28.15-31.25 28.35-30.95Q28.25-30.65 28.03-29.5 27.8-28.35 27.53-26.5 27.25-24.65 27.1-22.6L27.1-22.6 24.7-22.4Q24.75-22.65 24.8-23.33 24.85-24 24.85-24.85L24.85-24.85Q24.85-29.5 17.5-29.5L17.5-29.5Q14.2-29.5 11.7-27.9 9.2-26.3 7.85-23.38 6.5-20.45 6.5-16.5L6.5-16.5Q6.5-12.15 7.93-8.85 9.35-5.55 11.95-3.73 14.55-1.9 17.95-1.9L17.95-1.9Q21.35-1.9 23.43-3.83 25.5-5.75 26.45-9.8L26.45-9.8 28.85-10Q28.7-9.25 28.2-6.68 27.7-4.1 27.5-1.85L27.5-1.85 27.2-1.4Q27.2-1.35 25.68-0.83 24.15-0.3 21.88 0.15 19.6 0.6 16.95 0.6L16.95 0.6ZM33.95 0.45L34.2-1.6Q36.1-1.95 36.75-2.63 37.4-3.3 37.4-4.95L37.4-4.95 37.45-20.85Q37.45-22.1 37.15-22.53 36.85-22.95 35.95-22.95L35.95-22.95 34.3-22.9 34.2-23.1 34.45-25Q34.75-25 36.07-24.95 37.4-24.9 39.55-24.9L39.55-24.9Q40.7-24.9 42.37-25.05 44.05-25.2 44.55-25.25L44.55-25.25 44.35-23.2Q42.7-23 42.15-22.58 41.6-22.15 41.5-21L41.5-21Q41.3-17 41.12-12.15 40.95-7.3 40.95-4.65L40.95-4.65Q40.95-3.05 41.3-2.5 41.65-1.95 42.7-1.95L42.7-1.95Q43.4-1.95 43.97-2 44.55-2.05 44.75-2.1L44.75-2.1 44.85-1.9 44.5 0.1Q43.9 0.1 42.25 0.05 40.6 0 38.95 0L38.95 0Q37.6 0 36.02 0.18 34.45 0.35 33.95 0.45L33.95 0.45ZM70.34-6.8L70.3-21.25Q70.3-22.9 68.95-22.9L68.95-22.9 67.45-22.9 67.34-23.1 67.7-25.05Q68.15-25 69.4-24.95 70.65-24.9 71.95-24.9L71.95-24.9Q73.05-24.9 74.42-25.03 75.8-25.15 76.2-25.2L76.2-25.2 76-23.15Q74.55-22.95 73.92-22.38 73.3-21.8 73.25-20.65L73.25-20.65 72.65 0.85 70.7 1.4Q65.95-5.55 61.1-12.2 56.25-18.85 56.25-18.75L56.25-18.75 56-18.75 55.85-3.6Q55.85-2.65 56.15-2.3 56.45-1.95 57.15-1.95L57.15-1.95 59.15-2 59.3-1.85 58.9 0.15Q58.45 0.1 57.12 0.05 55.8 0 54.35 0L54.35 0Q53.2 0 51.9 0.13 50.6 0.25 50.2 0.3L50.2 0.3 50.45-1.75Q51.7-1.9 52.3-2.48 52.9-3.05 52.95-4.2L52.95-4.2 53.5-20.7Q53.5-21.95 52.77-22.43 52.05-22.9 50-23.15L50-23.15 49.8-23.4 50.15-25.1Q50.55-25.05 51.67-24.98 52.8-24.9 53.95-24.9L53.95-24.9Q55.05-24.9 55.9-24.95 56.75-25 57-25.05L57-25.05Q61.05-19.1 65.57-12.9 70.09-6.7 70.09-6.8L70.09-6.8 70.34-6.8ZM80.64 0.4L80.89-1.7Q82.74-1.9 83.39-2.6 84.04-3.3 84.04-5L84.04-5 84.09-20.85Q84.09-22.1 83.79-22.53 83.49-22.95 82.59-22.95L82.59-22.95 81.24-22.9 81.14-23.1 81.44-25Q82.04-25 83.79-24.95 85.54-24.9 87.59-24.9L87.59-24.9Q95.94-24.9 99.94-25.35L99.94-25.35 100.09-25.1Q99.99-24.55 99.64-22.6 99.29-20.65 99.14-18.4L99.14-18.4 96.74-18.2Q96.74-18.4 96.79-18.88 96.84-19.35 96.84-19.85L96.84-19.85Q96.84-21.15 96.47-21.68 96.09-22.2 94.92-22.38 93.74-22.55 90.84-22.55L90.84-22.55Q89.49-22.55 88.99-22.48 88.49-22.4 88.34-22.13 88.19-21.85 88.14-21.1L88.14-21.1 87.84-14 91.94-13.95Q92.84-13.95 94.59-14.13 96.34-14.3 96.89-14.35L96.89-14.35 97.09-14.1 96.49-11.5Q95.94-11.5 94.32-11.55 92.69-11.6 90.89-11.6L90.89-11.6Q89.49-11.6 87.74-11.35L87.74-11.35Q87.59-7.55 87.59-4.5L87.59-4.5Q87.59-3.35 87.77-2.9 87.94-2.45 88.57-2.3 89.19-2.15 90.64-2.15L90.64-2.15Q93.89-2.15 95.29-2.45 96.69-2.75 97.27-3.68 97.84-4.6 98.19-6.85L98.19-6.85 100.39-7.05 100.59-6.8Q100.44-6.25 100.07-4.23 99.69-2.2 99.49 0L99.49 0 99.19 0.25Q97.84 0.2 93.59 0.1 89.34 0 86.69 0L86.69 0Q84.64 0 82.89 0.18 81.14 0.35 80.64 0.4L80.64 0.4ZM106.24 0.6L106.54-1.7Q108.84-2.15 109.64-3.03 110.44-3.9 110.44-6L110.44-6 110.49-27Q110.49-28.6 110.12-29.15 109.74-29.7 108.64-29.7L108.64-29.7Q108.14-29.7 107.64-29.65 107.14-29.6 106.94-29.6L106.94-29.6 106.84-29.8 107.19-32Q107.84-31.95 109.82-31.9 111.79-31.85 114.14-31.85L114.14-31.85Q123.99-31.85 128.19-32.45L128.19-32.45 128.34-32.15Q128.29-31.85 128.07-30.75 127.84-29.65 127.59-27.7 127.34-25.75 127.19-23.7L127.19-23.7 124.79-23.5Q124.79-23.75 124.84-24.45 124.89-25.15 124.89-25.8L124.89-25.8Q124.89-27.55 124.47-28.23 124.04-28.9 122.74-29.13 121.44-29.35 118.19-29.35L118.19-29.35Q116.44-29.35 115.79-29.25 115.14-29.15 114.94-28.78 114.74-28.4 114.69-27.4L114.69-27.4 114.29-16.85 119.44-16.8Q120.39-16.8 122.24-17.03 124.09-17.25 124.69-17.35L124.69-17.35 124.89-17.1 124.19-14.1Q123.54-14.15 121.77-14.2 119.99-14.25 118.04-14.25L118.04-14.25Q116.19-14.25 114.19-13.9L114.19-13.9 113.99-5.6Q113.99-3.55 114.44-2.88 114.89-2.2 116.19-2.2L116.19-2.2Q117.19-2.2 118.27-2.27 119.34-2.35 119.74-2.35L119.74-2.35 119.84-2.15 119.39 0.2Q118.59 0.15 116.42 0.08 114.24 0 111.94 0L111.94 0Q110.39 0 108.59 0.25 106.79 0.5 106.24 0.6L106.24 0.6ZM131.59 0.45L131.84-1.6Q133.74-1.95 134.39-2.63 135.04-3.3 135.04-4.95L135.04-4.95 135.09-20.85Q135.09-22.1 134.79-22.53 134.49-22.95 133.59-22.95L133.59-22.95 131.94-22.9 131.84-23.1 132.09-25Q132.39-25 133.71-24.95 135.04-24.9 137.19-24.9L137.19-24.9Q138.34-24.9 140.01-25.05 141.69-25.2 142.19-25.25L142.19-25.25 141.99-23.2Q140.34-23 139.79-22.58 139.24-22.15 139.14-21L139.14-21Q138.94-17 138.76-12.15 138.59-7.3 138.59-4.65L138.59-4.65Q138.59-3.05 138.94-2.5 139.29-1.95 140.34-1.95L140.34-1.95Q141.04-1.95 141.61-2 142.19-2.05 142.39-2.1L142.39-2.1 142.49-1.9 142.14 0.1Q141.54 0.1 139.89 0.05 138.24 0 136.59 0L136.59 0Q135.24 0 133.66 0.18 132.09 0.35 131.59 0.45L131.59 0.45ZM147.94 0.4L148.24-1.7Q149.84-1.95 150.41-2.63 150.99-3.3 150.99-5L150.99-5 151.04-20.85Q151.04-22.1 150.74-22.53 150.44-22.95 149.54-22.95L149.54-22.95 148.19-22.9 148.04-23.1 148.34-25Q148.59-25 149.84-24.95 151.09-24.9 153.19-24.9L153.19-24.9Q154.29-24.9 155.91-25.05 157.54-25.2 158.04-25.25L158.04-25.25 157.84-23.15Q156.49-23 155.94-22.68 155.39-22.35 155.29-21.85 155.19-21.35 155.04-19.8L155.04-19.8Q154.54-13.1 154.54-4.95L154.54-4.95Q154.54-3.7 154.76-3.13 154.99-2.55 155.66-2.35 156.34-2.15 157.79-2.15L157.79-2.15Q160.19-2.15 161.31-2.55 162.44-2.95 163.01-4.13 163.59-5.3 164.04-7.85L164.04-7.85 166.24-8.1 166.39-7.8Q166.29-7.15 165.91-4.83 165.54-2.5 165.24 0.05L165.24 0.05 164.99 0.35Q163.84 0.3 160.11 0.15 156.39 0 153.84 0L153.84 0Q151.84 0 150.11 0.18 148.39 0.35 147.94 0.4L147.94 0.4ZM168.68 0.4L168.93-1.7Q170.78-1.9 171.43-2.6 172.08-3.3 172.08-5L172.08-5 172.13-20.85Q172.13-22.1 171.83-22.53 171.53-22.95 170.63-22.95L170.63-22.95 169.28-22.9 169.18-23.1 169.48-25Q170.08-25 171.83-24.95 173.58-24.9 175.63-24.9L175.63-24.9Q183.98-24.9 187.98-25.35L187.98-25.35 188.13-25.1Q188.03-24.55 187.68-22.6 187.33-20.65 187.18-18.4L187.18-18.4 184.78-18.2Q184.78-18.4 184.83-18.88 184.88-19.35 184.88-19.85L184.88-19.85Q184.88-21.15 184.51-21.68 184.13-22.2 182.96-22.38 181.78-22.55 178.88-22.55L178.88-22.55Q177.53-22.55 177.03-22.48 176.53-22.4 176.38-22.13 176.23-21.85 176.18-21.1L176.18-21.1 175.88-14 179.98-13.95Q180.88-13.95 182.63-14.13 184.38-14.3 184.93-14.35L184.93-14.35 185.13-14.1 184.53-11.5Q183.98-11.5 182.36-11.55 180.73-11.6 178.93-11.6L178.93-11.6Q177.53-11.6 175.78-11.35L175.78-11.35Q175.63-7.55 175.63-4.5L175.63-4.5Q175.63-3.35 175.81-2.9 175.98-2.45 176.61-2.3 177.23-2.15 178.68-2.15L178.68-2.15Q181.93-2.15 183.33-2.45 184.73-2.75 185.31-3.68 185.88-4.6 186.23-6.85L186.23-6.85 188.43-7.05 188.63-6.8Q188.48-6.25 188.11-4.23 187.73-2.2 187.53 0L187.53 0 187.23 0.25Q185.88 0.2 181.63 0.1 177.38 0 174.73 0L174.73 0Q172.68 0 170.93 0.18 169.18 0.35 168.68 0.4L168.68 0.4ZM200.93 0.45Q199.18 0.45 197.71 0.15 196.23-0.15 195.36-0.48 194.48-0.8 194.28-0.9L194.28-0.9 194.03-1.35Q194.08-1.6 194.21-2.48 194.33-3.35 194.46-4.93 194.58-6.5 194.58-8.1L194.58-8.1 196.83-8.3Q196.83-5.6 197.26-4.28 197.68-2.95 198.73-2.45 199.78-1.95 201.93-1.95L201.93-1.95Q204.33-1.95 205.81-3 207.28-4.05 207.28-5.8L207.28-5.8Q207.28-6.95 206.46-7.83 205.63-8.7 204.56-9.3 203.48-9.9 201.13-11.05L201.13-11.05Q197.93-12.6 196.21-14.1 194.48-15.6 194.48-17.95L194.48-17.95Q194.48-20.05 195.76-21.75 197.03-23.45 199.28-24.4 201.53-25.35 204.28-25.35L204.28-25.35Q205.93-25.35 207.38-25.15 208.83-24.95 209.68-24.73 210.53-24.5 210.73-24.4L210.73-24.4 210.93-24.05Q210.83-23.5 210.48-21.58 210.13-19.65 209.98-17.45L209.98-17.45 208.03-17.25 207.73-17.45Q207.73-17.6 207.78-18.07 207.83-18.55 207.83-19.25L207.83-19.25Q207.83-21.2 206.81-21.98 205.78-22.75 203.18-22.75L203.18-22.75Q201.08-22.75 199.71-21.78 198.33-20.8 198.33-19.3L198.33-19.3Q198.33-17.8 199.71-16.75 201.08-15.7 203.88-14.35L203.88-14.35Q206.33-13.2 207.81-12.35 209.28-11.5 210.33-10.2 211.38-8.9 211.38-7.2L211.38-7.2Q211.38-4.95 210.06-3.23 208.73-1.5 206.36-0.53 203.98 0.45 200.93 0.45L200.93 0.45Z" opacity="1" transform="matrix(1,0,0,1,0,0)" fill="#000000" class="wordmark-text-0" data-fill-palette-color="quaternary" id="text-0"></path></svg></g></svg></g><g transform="matrix(1,0,0,1,75.54432,108.88113748573033)"><svg viewBox="0 0 244.43135999999998 8.66730587529322" height="8.66730587529322" width="244.43135999999998"><g transform="matrix(1,0,0,1,0,0)"><svg width="244.43135999999998" viewBox="1.1 -32.05 916.4399999999999 32.5" height="8.66730587529322" data-palette-color="#dcdcdc"><path d="M23.15-32.05L23.45-31.65 23.15-28.55 17.55-28.85 14.3-28.85 14.15-10 14.3 0 10.25 0 10.55-9.65 10.3-28.85 7.05-28.85 1.35-28.55 1.1-28.95 1.4-32.05 23.15-32.05ZM49.85-24.9L49.7-7.8 49.8 0 46.1 0 46.25-7.5 46.2-10.9 32.65-10.85 32.6-7.8 32.7 0 29 0 29.15-7.5 29-24.9 32.75-24.9 32.65-14.2 39.4-14.15 46.2-14.2 46.1-24.9 49.85-24.9ZM67.34-3L74-3.2 74.3-2.9 73.95 0 58.8 0 58.95-7.5 58.8-24.9 74.05-24.9 74.3-24.6 74-21.7 67.7-21.9 62.5-21.85 62.45-14.3 67.4-14.25 71.75-14.4 72-14.05 71.7-11.1 67.09-11.25 62.45-11.2 62.4-7.8 62.45-3.05 67.34-3ZM98.59-25.2Q104.04-25.2 106.97-22 109.89-18.8 109.89-12.95L109.89-12.95Q109.89-6.6 106.77-3.13 103.64 0.35 97.84 0.35L97.84 0.35Q92.44 0.35 89.49-2.93 86.54-6.2 86.54-12.25L86.54-12.25Q86.54-18.45 89.69-21.83 92.84-25.2 98.59-25.2L98.59-25.2ZM98.24-22.05Q94.29-22.05 92.37-19.8 90.44-17.55 90.44-12.7L90.44-12.7Q90.44-7.5 92.34-5.15 94.24-2.8 98.14-2.8L98.14-2.8Q102.14-2.8 104.09-5.1 106.04-7.4 106.04-12.3L106.04-12.3Q106.04-17.35 104.12-19.7 102.19-22.05 98.24-22.05L98.24-22.05ZM137.44-25L137.29-7.45 137.34 0 133.34 0 120.24-19 119.99-19 119.94-8.3 120.04 0 116.64 0 116.79-7.35 116.69-24.9 120.64-24.9 133.74-5.9 134.09-5.9 133.99-24.75 137.44-25ZM159.64-3.15L159.84-2.8 159.59 0 146.34 0 146.49-7.5 146.34-24.9 150.09-24.9 149.94-7.8 150.04-3.15 159.64-3.15ZM171.38-8.7L171.33-7.15 171.48 0 167.73 0 167.93-7.15 167.88-8.7 159.43-24.9 163.53-24.9 164.03-23.45 169.63-12.75 169.88-12.75 175.98-23.3 176.63-24.9 180.63-24.9 171.38-8.7ZM218.53-24.9L221.08 0 217.73 0 217.18-7.6 215.83-19.1 215.53-19.1 208.38-2.8 205.43-2.8 198.68-19.1 198.38-19.1 197.08-7.9 196.38 0 193.18 0 195.93-24.9 200.28-24.9 201.53-21.15 206.98-7.75 207.28-7.75 212.98-21.35 214.28-24.9 218.53-24.9ZM238.53-25.2Q243.98-25.2 246.9-22 249.83-18.8 249.83-12.95L249.83-12.95Q249.83-6.6 246.7-3.13 243.58 0.35 237.78 0.35L237.78 0.35Q232.38 0.35 229.43-2.93 226.48-6.2 226.48-12.25L226.48-12.25Q226.48-18.45 229.63-21.83 232.78-25.2 238.53-25.2L238.53-25.2ZM238.18-22.05Q234.23-22.05 232.3-19.8 230.38-17.55 230.38-12.7L230.38-12.7Q230.38-7.5 232.28-5.15 234.18-2.8 238.08-2.8L238.08-2.8Q242.08-2.8 244.03-5.1 245.98-7.4 245.98-12.3L245.98-12.3Q245.98-17.35 244.05-19.7 242.13-22.05 238.18-22.05L238.18-22.05ZM275.27-24.9L265.77 0 261.32 0 252.62-24.9 256.47-24.9 257.07-22.15 263.52-3.7 263.77-3.7 270.92-22 271.52-24.9 275.27-24.9ZM284.52-24.9L284.37-7.8 284.47 0 280.77 0 280.92-7.5 280.77-24.9 284.52-24.9ZM302.27-3L308.92-3.2 309.22-2.9 308.87 0 293.72 0 293.87-7.5 293.72-24.9 308.97-24.9 309.22-24.6 308.92-21.7 302.62-21.9 297.42-21.85 297.37-14.3 302.32-14.25 306.67-14.4 306.92-14.05 306.62-11.1 302.02-11.25 297.37-11.2 297.32-7.8 297.37-3.05 302.27-3ZM335.41-12.95Q340.96-11.85 340.96-7.05L340.96-7.05Q340.96-3.45 338.16-1.65 335.36 0.15 329.96 0.15L329.96 0.15Q326.71 0.15 323.71 0L323.71 0 323.86-7.5 323.71-24.9 331.51-24.95Q335.26-24.95 337.34-23.38 339.41-21.8 339.41-18.9L339.41-18.9Q339.41-16.75 338.36-15.25 337.31-13.75 335.41-12.95L335.41-12.95ZM335.46-18.45Q335.46-20.3 334.26-21.15 333.06-22 330.41-22L330.41-22 327.36-22 327.31-14.3 331.76-14.15Q333.61-14.55 334.54-15.58 335.46-16.6 335.46-18.45L335.46-18.45ZM330.41-2.7Q333.66-2.7 335.39-3.83 337.11-4.95 337.11-7.15L337.11-7.15Q337.11-8.95 335.91-9.95 334.71-10.95 332.26-11.3L332.26-11.3 327.31-11.25 327.26-7.8 327.36-2.85Q328.91-2.7 330.41-2.7L330.41-2.7ZM357.56-25.2Q363.01-25.2 365.94-22 368.86-18.8 368.86-12.95L368.86-12.95Q368.86-6.6 365.74-3.13 362.61 0.35 356.81 0.35L356.81 0.35Q351.41 0.35 348.46-2.93 345.51-6.2 345.51-12.25L345.51-12.25Q345.51-18.45 348.66-21.83 351.81-25.2 357.56-25.2L357.56-25.2ZM357.21-22.05Q353.26-22.05 351.34-19.8 349.41-17.55 349.41-12.7L349.41-12.7Q349.41-7.5 351.31-5.15 353.21-2.8 357.11-2.8L357.11-2.8Q361.11-2.8 363.06-5.1 365.01-7.4 365.01-12.3L365.01-12.3Q365.01-17.35 363.09-19.7 361.16-22.05 357.21-22.05L357.21-22.05ZM385.41-25.2Q390.86-25.2 393.78-22 396.71-18.8 396.71-12.95L396.71-12.95Q396.71-6.6 393.58-3.13 390.46 0.35 384.66 0.35L384.66 0.35Q379.26 0.35 376.31-2.93 373.36-6.2 373.36-12.25L373.36-12.25Q373.36-18.45 376.51-21.83 379.66-25.2 385.41-25.2L385.41-25.2ZM385.06-22.05Q381.11-22.05 379.18-19.8 377.26-17.55 377.26-12.7L377.26-12.7Q377.26-7.5 379.16-5.15 381.06-2.8 384.96-2.8L384.96-2.8Q388.96-2.8 390.91-5.1 392.86-7.4 392.86-12.3L392.86-12.3Q392.86-17.35 390.93-19.7 389.01-22.05 385.06-22.05L385.06-22.05ZM422.16-24.95L411.56-13.25Q416.86-6.75 422.81-0.85L422.81-0.85 422.71-0.3Q421.16 0.2 419.11 0.45L419.11 0.45 418.51 0.2Q412.11-7 407.46-13L407.46-13 407.46-13.3 416.06-22.7 417.71-24.9 422.16-24.95ZM407.21-24.9L407.06-7.8 407.16 0 403.46 0 403.61-7.5 403.46-24.9 407.21-24.9ZM431.7-24.9L431.55-7.8 431.65 0 427.95 0 428.1-7.5 427.95-24.9 431.7-24.9ZM461.7-25L461.55-7.45 461.6 0 457.6 0 444.5-19 444.25-19 444.2-8.3 444.3 0 440.9 0 441.05-7.35 440.95-24.9 444.9-24.9 458-5.9 458.35-5.9 458.25-24.75 461.7-25ZM480.65-25.15Q484.55-25.15 488.5-23.45L488.5-23.45 487.25-19.85 486.8-19.85Q484.95-21.05 483.4-21.53 481.85-22 480.05-22L480.05-22Q475.8-22 473.67-19.6 471.55-17.2 471.55-12.1L471.55-12.1Q471.55-7.2 473.5-5.03 475.45-2.85 479.7-2.85L479.7-2.85Q480.95-2.85 482.1-3.08 483.25-3.3 484.9-3.9L484.9-3.9 484.9-6.4 484.85-9.95 488.3-10.2 488.3-1.2Q483.25 0.3 479.55 0.3L479.55 0.3Q473.65 0.3 470.62-2.88 467.6-6.05 467.6-11.95L467.6-11.95Q467.6-18.35 471.02-21.75 474.45-25.15 480.65-25.15L480.65-25.15ZM511.74-25.15Q514.79-25.15 517.84-23.95L517.84-23.95 517.19-20.25 516.59-20.1Q515.19-21.2 513.94-21.73 512.69-22.25 511.34-22.25L511.34-22.25Q509.19-22.25 507.94-21.13 506.69-20 506.69-18.55L506.69-18.55Q506.69-17.1 507.92-16.2 509.14-15.3 511.69-14.2L511.69-14.2Q513.94-13.2 515.27-12.4 516.59-11.6 517.57-10.28 518.54-8.95 518.54-7.05L518.54-7.05Q518.54-5.1 517.49-3.43 516.44-1.75 514.42-0.73 512.39 0.3 509.59 0.3L509.59 0.3Q507.84 0.3 505.92-0.13 503.99-0.55 502.34-1.4L502.34-1.4 502.79-5.35 503.29-5.55Q504.69-4.15 506.57-3.38 508.44-2.6 510.04-2.6L510.04-2.6Q512.14-2.6 513.49-3.73 514.84-4.85 514.84-6.45L514.84-6.45Q514.84-7.95 513.62-8.85 512.39-9.75 509.79-10.95L509.79-10.95Q507.64-11.9 506.27-12.7 504.89-13.5 503.94-14.83 502.99-16.15 502.99-18.05L502.99-18.05Q502.99-20.05 504.07-21.65 505.14-23.25 507.12-24.2 509.09-25.15 511.74-25.15L511.74-25.15ZM529.39-24.9L529.24-7.8 529.34 0 525.64 0 525.79-7.5 525.64-24.9 529.39-24.9ZM553.44-24.9L553.64-24.6 553.39-21.45 548.74-21.8 546.24-21.8 546.09-7.8 546.24 0 542.49 0 542.64-7.5 542.54-21.8 540.04-21.8 535.29-21.45 534.99-21.8 535.29-24.9 553.44-24.9ZM568.28-3L574.94-3.2 575.24-2.9 574.88 0 559.74 0 559.88-7.5 559.74-24.9 574.99-24.9 575.24-24.6 574.94-21.7 568.63-21.9 563.44-21.85 563.38-14.3 568.34-14.25 572.69-14.4 572.94-14.05 572.63-11.1 568.03-11.25 563.38-11.2 563.34-7.8 563.38-3.05 568.28-3ZM598.43-8.7L598.38-7.15 598.53 0 594.78 0 594.98-7.15 594.93-8.7 586.48-24.9 590.58-24.9 591.08-23.45 596.68-12.75 596.93-12.75 603.03-23.3 603.68-24.9 607.68-24.9 598.43-8.7ZM621.48-25.2Q626.93-25.2 629.85-22 632.78-18.8 632.78-12.95L632.78-12.95Q632.78-6.6 629.65-3.13 626.53 0.35 620.73 0.35L620.73 0.35Q615.33 0.35 612.38-2.93 609.43-6.2 609.43-12.25L609.43-12.25Q609.43-18.45 612.58-21.83 615.73-25.2 621.48-25.2L621.48-25.2ZM621.13-22.05Q617.18-22.05 615.25-19.8 613.33-17.55 613.33-12.7L613.33-12.7Q613.33-7.5 615.23-5.15 617.13-2.8 621.03-2.8L621.03-2.8Q625.03-2.8 626.98-5.1 628.93-7.4 628.93-12.3L628.93-12.3Q628.93-17.35 627-19.7 625.08-22.05 621.13-22.05L621.13-22.05ZM658.82-24.9L658.67-12.25 658.67-8.65Q658.72-4.4 656.1-2.05 653.47 0.3 648.57 0.3L648.57 0.3Q643.72 0.3 641.17-2.02 638.62-4.35 638.72-8.65L638.72-8.65 638.77-12.45 638.72-24.9 642.47-24.9 642.27-9.25Q642.22-6.1 643.85-4.5 645.47-2.9 648.72-2.9L648.72-2.9Q651.92-2.9 653.57-4.5 655.22-6.1 655.17-9.25L655.17-9.25 655.02-24.9 658.82-24.9ZM668.37-24.9L668.67-24.55 667.47-15.4 665.42-15.1 665.07-15.45 665.32-24.65 668.37-24.9ZM688.47-3.15L688.67-2.8 688.42 0 675.17 0 675.32-7.5 675.17-24.9 678.92-24.9 678.77-7.8 678.87-3.15 688.47-3.15ZM707.32-3.15L707.52-2.8 707.27 0 694.02 0 694.17-7.5 694.02-24.9 697.77-24.9 697.62-7.8 697.72-3.15 707.32-3.15ZM729.76-3L736.41-3.2 736.71-2.9 736.36 0 721.21 0 721.36-7.5 721.21-24.9 736.46-24.9 736.71-24.6 736.41-21.7 730.11-21.9 724.91-21.85 724.86-14.3 729.81-14.25 734.16-14.4 734.41-14.05 734.11-11.1 729.51-11.25 724.86-11.2 724.81-7.8 724.86-3.05 729.76-3ZM762.46-24.9L752.96 0 748.51 0 739.81-24.9 743.66-24.9 744.26-22.15 750.71-3.7 750.96-3.7 758.11-22 758.71-24.9 762.46-24.9ZM776.51-3L783.16-3.2 783.46-2.9 783.11 0 767.96 0 768.11-7.5 767.96-24.9 783.21-24.9 783.46-24.6 783.16-21.7 776.86-21.9 771.66-21.85 771.61-14.3 776.56-14.25 780.91-14.4 781.16-14.05 780.86-11.1 776.26-11.25 771.61-11.2 771.56-7.8 771.61-3.05 776.51-3ZM801.15-10.05Q804.2-5.4 807.9-0.9L807.9-0.9 807.85-0.4Q805.75 0.25 804.4 0.35L804.4 0.35 803.75-0.05Q799.95-5.8 798-9.1L798-9.1 793.3-9.05 793.3-7.8 793.4 0 789.7 0 789.85-7.5 789.7-24.9 798.2-24.95Q802.15-24.95 804.28-23.1 806.4-21.25 806.4-17.75L806.4-17.75Q806.4-15.2 805.03-13.2 803.65-11.2 801.15-10.05L801.15-10.05ZM793.4-21.9L793.35-12.15 798.05-12Q802.5-13.25 802.5-17.45L802.5-17.45Q802.5-19.65 801.2-20.75 799.9-21.85 797.25-21.95L797.25-21.95 793.4-21.9ZM843.55-25L843.4-7.45 843.45 0 839.45 0 826.35-19 826.1-19 826.05-8.3 826.15 0 822.75 0 822.9-7.35 822.8-24.9 826.75-24.9 839.85-5.9 840.2-5.9 840.1-24.75 843.55-25ZM861.1-3L867.75-3.2 868.05-2.9 867.7 0 852.55 0 852.7-7.5 852.55-24.9 867.8-24.9 868.05-24.6 867.75-21.7 861.45-21.9 856.25-21.85 856.2-14.3 861.15-14.25 865.5-14.4 865.75-14.05 865.45-11.1 860.85-11.25 856.2-11.2 856.15-7.8 856.2-3.05 861.1-3ZM882.84-3L889.49-3.2 889.79-2.9 889.44 0 874.29 0 874.44-7.5 874.29-24.9 889.54-24.9 889.79-24.6 889.49-21.7 883.19-21.9 877.99-21.85 877.94-14.3 882.89-14.25 887.24-14.4 887.49-14.05 887.19-11.1 882.59-11.25 877.94-11.2 877.89-7.8 877.94-3.05 882.84-3ZM905.79-25.1Q911.49-25.1 914.52-22.05 917.54-19 917.54-13.3L917.54-13.3Q917.54-6.75 914.24-3.25 910.94 0.25 904.79 0.25L904.79 0.25Q903.04 0.25 900.62 0.18 898.19 0.1 896.04 0L896.04 0 896.19-7.5 896.04-24.9 905.79-25.1ZM905.39-2.8Q909.39-2.8 911.57-5.23 913.74-7.65 913.74-12.55L913.74-12.55Q913.74-17.35 911.69-19.65 909.64-21.95 905.49-21.95L905.49-21.95Q903.04-21.95 899.74-21.75L899.74-21.75 899.64-7.8 899.69-3.1Q901.14-3 902.74-2.9 904.34-2.8 905.39-2.8L905.39-2.8Z" opacity="1" transform="matrix(1,0,0,1,0,0)" fill="#ffffff" class="slogan-text-1" data-fill-palette-color="secondary" id="text-1"></path></svg></g></svg></g></svg></g></svg></g><g></g></svg></g><defs></defs></svg><rect width="395.52" height="117.54844336102356" fill="none" stroke="none" visibility="hidden"></rect></g></svg></g></svg>